<?xml version="1.0" encoding="UTF-8"?>
<!DOCTYPE svg PUBLIC "-//W3C//DTD SVG 1.1//EN" "http://www.w3.org/Graphics/SVG/1.1/DTD/svg11.dtd">
<svg xmlns="http://www.w3.org/2000/svg" version="1.1" width="512px" height="512px" style="shape-rendering:geometricPrecision; text-rendering:geometricPrecision; image-rendering:optimizeQuality; fill-rule:evenodd; clip-rule:evenodd" xmlns:xlink="http://www.w3.org/1999/xlink">
<g><path style="opacity:0.971" fill="#030201" d="M 404.5,-0.5 C 407.167,-0.5 409.833,-0.5 412.5,-0.5C 417.479,5.14565 422.812,10.479 428.5,15.5C 432.833,13 437.167,10.5 441.5,8C 453.694,2.97762 465.361,3.97762 476.5,11C 486.068,19.8981 494.901,29.3981 503,39.5C 506.304,47.3115 506.971,55.3115 505,63.5C 502.376,70.081 499.209,76.4143 495.5,82.5C 500.521,88.1877 505.854,93.521 511.5,98.5C 511.5,101.167 511.5,103.833 511.5,106.5C 508.795,110.17 505.128,111.337 500.5,110C 495.699,106.201 491.199,102.034 487,97.5C 483.5,103.833 480,110.167 476.5,116.5C 481.185,121.351 485.685,126.351 490,131.5C 490.761,141.068 486.594,144.235 477.5,141C 473.985,137.318 470.318,133.818 466.5,130.5C 461.821,134.339 456.488,136.839 450.5,138C 442.794,138.522 435.127,138.522 427.5,138C 389.5,176 351.5,214 313.5,252C 321.245,255.583 329.245,258.583 337.5,261C 339.747,262.995 340.747,265.495 340.5,268.5C 338.468,274.131 334.468,275.964 328.5,274C 318.735,272.033 309.568,268.533 301,263.5C 280.333,284.167 259.667,304.833 239,325.5C 238.333,326.167 238.333,326.833 239,327.5C 246.667,335.167 254.333,342.833 262,350.5C 266.667,359.167 266.667,367.833 262,376.5C 256.833,381.667 251.667,386.833 246.5,392C 238.045,397.537 229.378,397.871 220.5,393C 213.364,386.865 206.531,380.365 200,373.5C 197.689,369.374 198.189,365.707 201.5,362.5C 204.073,361.445 206.739,361.278 209.5,362C 215.5,368 221.5,374 227.5,380C 230.833,382 234.167,382 237.5,380C 241.667,375.833 245.833,371.667 250,367.5C 250.667,364.833 250.667,362.167 250,359.5C 221.632,330.965 193.132,302.632 164.5,274.5C 160.37,269.869 156.037,265.369 151.5,261C 148.833,260.333 146.167,260.333 143.5,261C 139,265.5 134.5,270 130,274.5C 128.47,279.717 129.97,283.717 134.5,286.5C 152.132,304.632 169.965,322.632 188,340.5C 188.793,343.741 188.293,346.741 186.5,349.5C 183.283,351.842 179.95,352.009 176.5,350C 158.299,331.632 139.965,313.465 121.5,295.5C 113.792,286.296 112.625,276.296 118,265.5C 124.614,257.879 132.114,251.379 140.5,246C 147.543,244.719 154.21,245.719 160.5,249C 166.035,254.703 171.702,260.203 177.5,265.5C 179.528,268.719 182.195,270.886 185.5,272C 206,251.5 226.5,231 247,210.5C 240.408,194.967 237.241,178.634 237.5,161.5C 240.441,139.296 248.608,119.296 262,101.5C 266.472,92.9398 264.972,85.7731 257.5,80C 252.343,77.8319 247.343,78.1652 242.5,81C 227,96.5 211.5,112 196,127.5C 181.216,146.186 174.216,167.519 175,191.5C 172.469,207.695 163.303,217.862 147.5,222C 104.703,218.368 68.8699,232.201 40,263.5C 37.6227,267.088 35.1227,270.588 32.5,274C 29.3117,275.316 25.9783,275.816 22.5,275.5C 19.7798,272.322 18.9464,268.655 20,264.5C 43.7643,230.859 76.2643,212.026 117.5,208C 126.5,207.667 135.5,207.333 144.5,207C 151.573,204.928 156.406,200.428 159,193.5C 158.703,161.709 169.036,134.042 190,110.5C 203.167,97.3333 216.333,84.1667 229.5,71C 241.504,62.2074 254.17,61.2074 267.5,68C 278.901,76.8704 282.735,88.3704 279,102.5C 273.415,111.335 268.081,120.335 263,129.5C 252.093,151.652 250.759,174.319 259,197.5C 297,159.5 335,121.5 373,83.5C 371.381,74.6156 371.714,65.6156 374,56.5C 376.315,49.3809 380.481,43.5476 386.5,39C 382.667,35.1667 378.833,31.3333 375,27.5C 372.141,18.0971 375.641,14.2638 385.5,16C 390.983,20.6486 396.316,25.4819 401.5,30.5C 405.34,28.0791 409.34,25.9125 413.5,24C 408.966,19.8006 404.799,15.3006 401,10.5C 399.663,5.87205 400.83,2.20539 404.5,-0.5 Z"/></g>
<g><path style="opacity:1" fill="#fcb059" d="M 470.5,27.5 C 467.1,29.037 463.767,30.8703 460.5,33C 443.833,45.6667 427.167,58.3333 410.5,71C 404.058,76.7186 401.058,83.8852 401.5,92.5C 395.738,88.2371 391.238,82.9038 388,76.5C 385.652,66.2115 388.485,57.7115 396.5,51C 414.5,41 432.5,31 450.5,21C 458.631,19.1891 465.297,21.3558 470.5,27.5 Z"/></g>
<g><path style="opacity:1" fill="#fdc98a" d="M 470.5,27.5 C 477.869,33.7015 484.369,40.7015 490,48.5C 490.914,54.0298 490.247,59.3631 488,64.5C 478.667,81.1667 469.333,97.8333 460,114.5C 453.135,121.95 444.635,124.783 434.5,123C 432.5,122 430.5,121 428.5,120C 419.298,110.965 410.298,101.798 401.5,92.5C 401.058,83.8852 404.058,76.7186 410.5,71C 427.167,58.3333 443.833,45.6667 460.5,33C 463.767,30.8703 467.1,29.037 470.5,27.5 Z"/></g>
<g><path style="opacity:1" fill="#fdb159" d="M 237.5,161.5 C 223.78,171.91 214.78,185.576 210.5,202.5C 208.874,216.338 205.374,229.671 200,242.5C 194.562,250.937 188.062,258.437 180.5,265C 179.552,265.483 178.552,265.649 177.5,265.5C 171.702,260.203 166.035,254.703 160.5,249C 154.21,245.719 147.543,244.719 140.5,246C 132.114,251.379 124.614,257.879 118,265.5C 112.625,276.296 113.792,286.296 121.5,295.5C 112.604,302.127 104.271,309.461 96.5,317.5C 93.0127,318.745 90.0127,320.745 87.5,323.5C 81.948,315.124 74.2813,309.624 64.5,307C 52.6144,304.36 44.1144,308.526 39,319.5C 36.968,341.116 46.468,354.45 67.5,359.5C 68.6085,360.29 69.9419,360.79 71.5,361C 60.5824,388.917 57.2491,417.75 61.5,447.5C 21.1583,405.984 7.15831,356.817 19.5,300C 19.2185,296.556 17.5518,294.056 14.5,292.5C 16.4014,286.457 19.0681,280.79 22.5,275.5C 25.9783,275.816 29.3117,275.316 32.5,274C 35.1227,270.588 37.6227,267.088 40,263.5C 68.8699,232.201 104.703,218.368 147.5,222C 163.303,217.862 172.469,207.695 175,191.5C 174.216,167.519 181.216,146.186 196,127.5C 211.5,112 227,96.5 242.5,81C 247.343,78.1652 252.343,77.8319 257.5,80C 264.972,85.7731 266.472,92.9398 262,101.5C 248.608,119.296 240.441,139.296 237.5,161.5 Z"/></g>
<g><path style="opacity:1" fill="#65627a" d="M 396.5,109.5 C 387.167,118.5 377.833,127.5 368.5,136.5C 363.854,132.521 359.521,128.188 355.5,123.5C 363.986,114.514 372.652,105.681 381.5,97C 382.5,96.3333 383.5,96.3333 384.5,97C 388.704,101.036 392.704,105.202 396.5,109.5 Z"/></g>
<g><path style="opacity:1" fill="#817e96" d="M 396.5,109.5 C 402.812,115.146 408.812,121.146 414.5,127.5C 405.514,136.986 396.348,146.319 387,155.5C 380.631,149.298 374.464,142.965 368.5,136.5C 377.833,127.5 387.167,118.5 396.5,109.5 Z"/></g>
<g><path style="opacity:1" fill="#ccd2e9" d="M 358.5,148.5 C 355.397,150.423 352.397,152.59 349.5,155C 348.177,155.816 347.511,156.983 347.5,158.5C 342.657,154.49 338.324,149.99 334.5,145C 337.341,140.479 341.008,137.146 345.5,135C 350.037,139.369 354.37,143.869 358.5,148.5 Z"/></g>
<g><path style="opacity:1" fill="#e8eaf1" d="M 358.5,148.5 C 364.812,154.146 370.812,160.146 376.5,166.5C 373.683,169.818 370.683,172.985 367.5,176C 366.5,176.667 365.5,176.667 364.5,176C 358.63,170.298 352.964,164.465 347.5,158.5C 347.511,156.983 348.177,155.816 349.5,155C 352.397,152.59 355.397,150.423 358.5,148.5 Z"/></g>
<g><path style="opacity:1" fill="#656179" d="M 336.5,169.5 C 335.761,169.369 335.094,169.536 334.5,170C 327.572,176.423 321.238,183.256 315.5,190.5C 311.202,186.704 307.036,182.704 303,178.5C 302.333,177.5 302.333,176.5 303,175.5C 309.376,168.789 316.043,162.455 323,156.5C 327.99,160.324 332.49,164.657 336.5,169.5 Z"/></g>
<g><path style="opacity:1" fill="#fdc889" d="M 237.5,161.5 C 237.241,178.634 240.408,194.967 247,210.5C 226.5,231 206,251.5 185.5,272C 182.195,270.886 179.528,268.719 177.5,265.5C 178.552,265.649 179.552,265.483 180.5,265C 188.062,258.437 194.562,250.937 200,242.5C 205.374,229.671 208.874,216.338 210.5,202.5C 214.78,185.576 223.78,171.91 237.5,161.5 Z"/></g>
<g><path style="opacity:1" fill="#807d95" d="M 336.5,169.5 C 343.35,175.171 349.183,181.505 354,188.5C 347.319,195.348 340.486,202.015 333.5,208.5C 327.146,202.812 321.146,196.812 315.5,190.5C 321.238,183.256 327.572,176.423 334.5,170C 335.094,169.536 335.761,169.369 336.5,169.5 Z"/></g>
<g><path style="opacity:1" fill="#d2d8ef" d="M 304.5,201.5 C 300.562,204.098 296.895,207.098 293.5,210.5C 288.99,206.823 284.99,202.657 281.5,198C 283.782,194.714 286.449,191.714 289.5,189C 290.5,188.333 291.5,188.333 292.5,189C 296.704,193.036 300.704,197.202 304.5,201.5 Z"/></g>
<g><path style="opacity:1" fill="#f0f2f9" d="M 304.5,201.5 C 310.812,207.146 316.812,213.146 322.5,219.5C 319.645,222.52 316.979,225.687 314.5,229C 313.5,229.667 312.5,229.667 311.5,229C 305.297,222.965 299.297,216.798 293.5,210.5C 296.895,207.098 300.562,204.098 304.5,201.5 Z"/></g>
<g><path style="opacity:1" fill="#65617a" d="M 283.5,222.5 C 275.888,228.775 268.554,235.442 261.5,242.5C 256.99,238.823 252.99,234.657 249.5,230C 255.455,223.043 261.789,216.376 268.5,210C 269.167,209.333 269.833,209.333 270.5,210C 274.866,214.174 279.199,218.34 283.5,222.5 Z"/></g>
<g><path style="opacity:1" fill="#807d95" d="M 283.5,222.5 C 289.812,228.146 295.812,234.146 301.5,240.5C 294.81,248.368 287.477,255.202 279.5,261C 273.297,254.965 267.297,248.798 261.5,242.5C 268.554,235.442 275.888,228.775 283.5,222.5 Z"/></g>
<g><path style="opacity:1" fill="#ccd2e8" d="M 251.5,254.5 C 246.559,256.442 242.892,259.775 240.5,264.5C 235.854,260.521 231.521,256.188 227.5,251.5C 230.317,248.182 233.317,245.015 236.5,242C 237.5,241.333 238.5,241.333 239.5,242C 243.704,246.036 247.704,250.202 251.5,254.5 Z"/></g>
<g><path style="opacity:0.959" fill="#020101" d="M 189.5,511.5 C 178.167,511.5 166.833,511.5 155.5,511.5C 88.1574,500.328 40.3241,463.662 12,401.5C 5.93076,386.545 1.76409,371.212 -0.5,355.5C -0.5,344.167 -0.5,332.833 -0.5,321.5C 0.695105,312.722 2.86177,304.055 6,295.5C 8.19617,292.875 11.0295,291.875 14.5,292.5C 17.5518,294.056 19.2185,296.556 19.5,300C 7.15831,356.817 21.1583,405.984 61.5,447.5C 99.2832,485.817 144.95,501.317 198.5,494C 243.786,482.714 272.62,454.547 285,409.5C 287.541,393.917 289.208,378.25 290,362.5C 294.561,352.273 302.061,345.106 312.5,341C 338.147,340.341 361.147,332.341 381.5,317C 392.399,306.77 402.566,295.937 412,284.5C 413.026,270.528 406.526,264.362 392.5,266C 383.807,271.232 374.473,274.232 364.5,275C 362.174,273.195 360.508,271.028 359.5,268.5C 359.642,265.383 360.976,262.883 363.5,261C 372.171,258.497 380.505,255.164 388.5,251C 407.599,247.129 420.432,254.296 427,272.5C 428.526,281.333 427.193,289.666 423,297.5C 409.303,314.205 393.47,328.371 375.5,340C 357.419,349.804 338.085,355.137 317.5,356C 310.155,358.679 305.655,363.845 304,371.5C 306.008,424.322 285.175,465.155 241.5,494C 225.085,502.971 207.752,508.805 189.5,511.5 Z"/></g>
<g><path style="opacity:1" fill="#e8eaf1" d="M 251.5,254.5 C 258.008,260.175 264.008,266.342 269.5,273C 266.659,277.521 262.992,280.854 258.5,283C 252.297,276.965 246.297,270.798 240.5,264.5C 242.892,259.775 246.559,256.442 251.5,254.5 Z"/></g>
<g><path style="opacity:1" fill="#fc9a20" d="M 164.5,274.5 C 154.573,278.698 144.573,282.698 134.5,286.5C 129.97,283.717 128.47,279.717 130,274.5C 134.5,270 139,265.5 143.5,261C 146.167,260.333 148.833,260.333 151.5,261C 156.037,265.369 160.37,269.869 164.5,274.5 Z"/></g>
<g><path style="opacity:1" fill="#646079" d="M 229.5,275.5 C 228.761,275.369 228.094,275.536 227.5,276C 220.572,282.423 214.238,289.256 208.5,296.5C 203.308,292.49 199.141,287.823 196,282.5C 202.681,275.652 209.514,268.985 216.5,262.5C 221.188,266.521 225.521,270.854 229.5,275.5 Z"/></g>
<g><path style="opacity:1" fill="#fdc98a" d="M 340.5,268.5 C 346.857,269.542 353.19,269.542 359.5,268.5C 360.508,271.028 362.174,273.195 364.5,275C 374.473,274.232 383.807,271.232 392.5,266C 406.526,264.362 413.026,270.528 412,284.5C 402.566,295.937 392.399,306.77 381.5,317C 361.147,332.341 338.147,340.341 312.5,341C 302.061,345.106 294.561,352.273 290,362.5C 289.208,378.25 287.541,393.917 285,409.5C 272.62,454.547 243.786,482.714 198.5,494C 144.95,501.317 99.2832,485.817 61.5,447.5C 57.2491,417.75 60.5824,388.917 71.5,361C 69.9419,360.79 68.6085,360.29 67.5,359.5C 81.4419,360.55 89.4419,354.216 91.5,340.5C 97.1412,337.024 101.641,332.357 105,326.5C 105.486,320.484 102.653,317.484 96.5,317.5C 104.271,309.461 112.604,302.127 121.5,295.5C 139.965,313.465 158.299,331.632 176.5,350C 179.95,352.009 183.283,351.842 186.5,349.5C 191.224,354.229 196.224,358.563 201.5,362.5C 198.189,365.707 197.689,369.374 200,373.5C 206.531,380.365 213.364,386.865 220.5,393C 229.378,397.871 238.045,397.537 246.5,392C 251.667,386.833 256.833,381.667 262,376.5C 266.667,367.833 266.667,359.167 262,350.5C 254.333,342.833 246.667,335.167 239,327.5C 238.333,326.833 238.333,326.167 239,325.5C 259.667,304.833 280.333,284.167 301,263.5C 309.568,268.533 318.735,272.033 328.5,274C 334.468,275.964 338.468,274.131 340.5,268.5 Z"/></g>
<g><path style="opacity:1" fill="#fcb058" d="M 164.5,274.5 C 193.132,302.632 221.632,330.965 250,359.5C 250.667,362.167 250.667,364.833 250,367.5C 245.833,371.667 241.667,375.833 237.5,380C 234.167,382 230.833,382 227.5,380C 221.5,374 215.5,368 209.5,362C 206.739,361.278 204.073,361.445 201.5,362.5C 196.224,358.563 191.224,354.229 186.5,349.5C 188.293,346.741 188.793,343.741 188,340.5C 169.965,322.632 152.132,304.632 134.5,286.5C 144.573,282.698 154.573,278.698 164.5,274.5 Z"/></g>
<g><path style="opacity:1" fill="#807d94" d="M 229.5,275.5 C 235.965,281.464 242.298,287.631 248.5,294C 241.307,301.536 233.973,308.536 226.5,315C 220.297,308.965 214.297,302.798 208.5,296.5C 214.238,289.256 220.572,282.423 227.5,276C 228.094,275.536 228.761,275.369 229.5,275.5 Z"/></g>
<g><path style="opacity:1" fill="#fefefd" d="M 87.5,323.5 C 83.1751,326.824 81.6751,331.157 83,336.5C 84.8514,339.838 87.6847,341.171 91.5,340.5C 89.4419,354.216 81.4419,360.55 67.5,359.5C 46.468,354.45 36.968,341.116 39,319.5C 44.1144,308.526 52.6144,304.36 64.5,307C 74.2813,309.624 81.948,315.124 87.5,323.5 Z"/></g>
<g><path style="opacity:1" fill="#0b0806" d="M 96.5,317.5 C 102.653,317.484 105.486,320.484 105,326.5C 101.641,332.357 97.1412,337.024 91.5,340.5C 87.6847,341.171 84.8514,339.838 83,336.5C 81.6751,331.157 83.1751,326.824 87.5,323.5C 90.0127,320.745 93.0127,318.745 96.5,317.5 Z"/></g>
<g><path style="opacity:1" fill="#050402" d="M 105.5,354.5 C 113.201,354.362 116.367,358.029 115,365.5C 109.632,371.832 110.799,376.499 118.5,379.5C 120.955,379.106 122.955,377.94 124.5,376C 132.17,374.028 136.003,376.861 136,384.5C 131.628,389.266 131.462,394.099 135.5,399C 139.484,400.115 142.818,399.115 145.5,396C 153.17,394.673 156.67,397.839 156,405.5C 152.967,409.938 148.8,412.771 143.5,414C 128.621,415.385 119.621,408.718 116.5,394C 101.768,390.71 95.2677,381.543 97,366.5C 98.6403,361.515 101.474,357.515 105.5,354.5 Z"/></g>
<g><path style="opacity:1" fill="#060403" d="M 186.5,423.5 C 184.704,424.793 183.037,426.293 181.5,428C 174.666,429.927 170.999,427.427 170.5,420.5C 173.173,415.313 176.84,410.813 181.5,407C 190.106,404.268 193.939,407.434 193,416.5C 190.628,418.703 188.461,421.037 186.5,423.5 Z"/></g>
<g><path style="opacity:1" fill="#fefdfd" d="M 170.5,420.5 C 170.999,427.427 174.666,429.927 181.5,428C 183.037,426.293 184.704,424.793 186.5,423.5C 199.799,431.431 205.632,443.098 204,458.5C 199.377,469.901 190.877,474.734 178.5,473C 158.845,467.023 150.011,453.857 152,433.5C 155.144,424.846 161.311,420.513 170.5,420.5 Z"/></g>
</svg>
