<?xml version="1.0" encoding="UTF-8"?>
<!DOCTYPE svg PUBLIC "-//W3C//DTD SVG 1.1//EN" "http://www.w3.org/Graphics/SVG/1.1/DTD/svg11.dtd">
<svg xmlns="http://www.w3.org/2000/svg" version="1.1" width="512px" height="512px" style="shape-rendering:geometricPrecision; text-rendering:geometricPrecision; image-rendering:optimizeQuality; fill-rule:evenodd; clip-rule:evenodd" xmlns:xlink="http://www.w3.org/1999/xlink">
<g><path style="opacity:0.975" fill="#020100" d="M 403.5,-0.5 C 408.167,-0.5 412.833,-0.5 417.5,-0.5C 423.278,1.92168 428.278,5.58835 432.5,10.5C 438.372,5.23373 445.039,1.56707 452.5,-0.5C 458.5,-0.5 464.5,-0.5 470.5,-0.5C 475.687,1.42666 480.687,3.92666 485.5,7C 491.667,13.1667 497.833,19.3333 504,25.5C 507.073,30.3133 509.573,35.3133 511.5,40.5C 511.5,46.5 511.5,52.5 511.5,58.5C 509.433,65.9612 505.766,72.6279 500.5,78.5C 505.412,82.7221 509.078,87.7221 511.5,93.5C 511.5,98.1667 511.5,102.833 511.5,107.5C 505.478,121.911 494.811,127.078 479.5,123C 474.142,120.646 469.642,117.146 466,112.5C 426.167,152.333 386.333,192.167 346.5,232C 381.967,289.54 387.133,349.706 362,412.5C 333.49,470.174 287.323,503.174 223.5,511.5C 210.5,511.5 197.5,511.5 184.5,511.5C 106.505,499.76 50.3388,458.426 16,387.5C 7.81733,367.759 2.31733,347.426 -0.5,326.5C -0.5,313.5 -0.5,300.5 -0.5,287.5C 9.94404,214.548 49.944,165.714 119.5,141C 142.074,134.509 165.074,132.176 188.5,134C 193.552,134.609 195.886,137.442 195.5,142.5C 194.781,145.72 192.781,147.887 189.5,149C 135.03,145.039 89.1971,162.872 52,202.5C 16.9548,246.712 6.28814,296.378 20,351.5C 39.6545,417.156 81.4879,462.323 145.5,487C 184.624,499.815 223.624,499.482 262.5,486C 269.622,483.604 276.288,480.437 282.5,476.5C 328.127,449.972 354.294,410.305 361,357.5C 365.101,316.242 356.435,277.908 335,242.5C 328.788,248.376 322.955,254.543 317.5,261C 340.43,303.433 343.597,347.266 327,392.5C 313.586,424.248 291.086,447.081 259.5,461C 254.819,462.481 251.152,461.314 248.5,457.5C 247.814,453.713 248.814,450.546 251.5,448C 293.419,429.054 316.919,396.554 322,350.5C 324.739,322.529 319.406,296.196 306,271.5C 288.833,288.667 271.667,305.833 254.5,323C 270.513,335.745 271.513,349.412 257.5,364C 248.5,370 239.5,370 230.5,364C 202.667,336.167 174.833,308.333 147,280.5C 138.862,263.266 143.695,251.1 161.5,244C 171.825,243.002 180.159,246.669 186.5,255C 187.5,255.667 188.5,255.667 189.5,255C 206.014,238.653 222.347,222.153 238.5,205.5C 223.381,196.738 207.047,191.238 189.5,189C 182.174,188.5 174.841,188.334 167.5,188.5C 117.965,191.513 82.7985,215.513 62,260.5C 52.7324,284.655 51.0658,309.322 57,334.5C 64.8861,331.376 72.3861,332.21 79.5,337C 111,368.5 142.5,400 174,431.5C 178.894,438.376 179.727,445.709 176.5,453.5C 176.833,453.833 177.167,454.167 177.5,454.5C 186.016,456.648 194.683,457.648 203.5,457.5C 211.566,457.308 219.566,456.808 227.5,456C 230.079,457.076 231.746,458.909 232.5,461.5C 233.041,464.652 232.041,467.152 229.5,469C 217.389,472.253 205.056,473.253 192.5,472C 183.266,470.878 174.099,469.378 165,467.5C 157.647,469.225 150.48,468.725 143.5,466C 111.361,434.861 79.5278,403.361 48,371.5C 42.5571,363.588 41.0571,354.922 43.5,345.5C 31.3662,296.979 41.1995,253.646 73,215.5C 102.729,185.305 138.895,171.305 181.5,173.5C 205.243,175.185 227.576,181.685 248.5,193C 249.5,193.667 250.5,193.667 251.5,193C 256.667,187.833 261.833,182.667 267,177.5C 267.667,176.833 267.667,176.167 267,175.5C 250.959,165.732 233.792,158.566 215.5,154C 212.944,152.945 211.277,151.112 210.5,148.5C 210.5,147.167 210.5,145.833 210.5,144.5C 211.639,140.866 214.139,138.866 218,138.5C 239.749,143.875 260.082,152.542 279,164.5C 286.833,156.667 294.667,148.833 302.5,141C 297.833,136.333 293.167,131.667 288.5,127C 269.487,131.176 258.154,123.843 254.5,105C 256.299,91.2011 264.132,83.3678 278,81.5C 296.895,85.2797 304.228,96.613 300,115.5C 304.667,120.167 309.333,124.833 314,129.5C 325.167,118.333 336.333,107.167 347.5,96C 342.833,91.3333 338.167,86.6667 333.5,82C 322.606,84.5865 313.106,82.0865 305,74.5C 299.404,65.4005 299.071,56.0672 304,46.5C 314.221,35.2015 325.721,33.7015 338.5,42C 346.106,49.9214 348.272,59.0881 345,69.5C 349.681,74.3485 354.515,79.0152 359.5,83.5C 372.653,70.8475 385.653,58.0141 398.5,45C 383.415,31.54 382.749,17.54 396.5,3C 398.925,1.78739 401.259,0.620727 403.5,-0.5 Z"/></g>
<g><path style="opacity:1" fill="#e0846a" d="M 407.5,14.5 C 410.893,14.0617 413.893,14.8951 416.5,17C 442.333,42.8333 468.167,68.6667 494,94.5C 497.598,99.4198 497.098,103.92 492.5,108C 489.036,108.817 485.702,108.483 482.5,107C 455.305,80.1388 428.472,52.9721 402,25.5C 401.176,20.4818 403.009,16.8152 407.5,14.5 Z"/></g>
<g><path style="opacity:1" fill="#f9e09e" d="M 455.5,14.5 C 462.722,13.5942 469.389,15.0942 475.5,19C 482.032,25.1975 488.199,31.6975 494,38.5C 498.572,49.3704 496.738,59.037 488.5,67.5C 473.514,53.0141 458.681,38.3474 444,23.5C 443.383,22.5509 443.549,21.7175 444.5,21C 447.933,18.2894 451.6,16.1227 455.5,14.5 Z"/></g>
<g><path style="opacity:1" fill="#d3613f" d="M 319.5,52.5 C 328.33,51.1621 331.83,54.8288 330,63.5C 325.959,68.3125 321.625,68.6459 317,64.5C 314.696,59.8553 315.529,55.8553 319.5,52.5 Z"/></g>
<g><path style="opacity:1" fill="#f5ce6f" d="M 341.5,214.5 C 333.254,214.696 325.921,212.196 319.5,207C 312.261,200.431 305.761,193.265 300,185.5C 297.062,180.566 295.895,175.233 296.5,169.5C 333.632,131.868 370.965,94.368 408.5,57C 409.5,56.3333 410.5,56.3333 411.5,57C 426.167,71.6667 440.833,86.3333 455.5,101C 417.632,139.035 379.632,176.868 341.5,214.5 Z"/></g>
<g><path style="opacity:1" fill="#d66240" d="M 274.5,97.5 C 282.161,96.663 285.661,99.9964 285,107.5C 281.455,113.209 277.121,113.875 272,109.5C 269.511,104.757 270.345,100.757 274.5,97.5 Z"/></g>
<g><path style="opacity:1" fill="#080603" d="M 375.5,114.5 C 378.564,114.144 381.231,114.977 383.5,117C 389.022,121.507 393.356,126.84 396.5,133C 395.296,139.106 391.629,141.439 385.5,140C 380.667,135.167 375.833,130.333 371,125.5C 369.393,120.438 370.893,116.772 375.5,114.5 Z"/></g>
<g><path style="opacity:1" fill="#c85834" d="M 195.5,142.5 C 200.548,142.842 205.548,143.508 210.5,144.5C 210.5,145.833 210.5,147.167 210.5,148.5C 199.263,155.074 189.597,163.408 181.5,173.5C 138.895,171.305 102.729,185.305 73,215.5C 41.1995,253.646 31.3662,296.979 43.5,345.5C 41.0571,354.922 42.5571,363.588 48,371.5C 79.5278,403.361 111.361,434.861 143.5,466C 150.48,468.725 157.647,469.225 165,467.5C 174.099,469.378 183.266,470.878 192.5,472C 205.056,473.253 217.389,472.253 229.5,469C 232.041,467.152 233.041,464.652 232.5,461.5C 235.493,460.865 238.493,460.699 241.5,461C 254.381,468.448 268.047,473.615 282.5,476.5C 276.288,480.437 269.622,483.604 262.5,486C 223.624,499.482 184.624,499.815 145.5,487C 81.4879,462.323 39.6545,417.156 20,351.5C 6.28814,296.378 16.9548,246.712 52,202.5C 89.1971,162.872 135.03,145.039 189.5,149C 192.781,147.887 194.781,145.72 195.5,142.5 Z"/></g>
<g><path style="opacity:1" fill="#050402" d="M 346.5,142.5 C 349.271,142.421 351.937,142.921 354.5,144C 360.136,148.793 364.803,154.293 368.5,160.5C 367.572,166.967 363.905,169.467 357.5,168C 353,163.5 348.5,159 344,154.5C 341.511,149.757 342.345,145.757 346.5,142.5 Z"/></g>
<g><path style="opacity:1" fill="#da6441" d="M 210.5,148.5 C 211.277,151.112 212.944,152.945 215.5,154C 233.792,158.566 250.959,165.732 267,175.5C 267.667,176.167 267.667,176.833 267,177.5C 261.833,182.667 256.667,187.833 251.5,193C 250.5,193.667 249.5,193.667 248.5,193C 227.576,181.685 205.243,175.185 181.5,173.5C 189.597,163.408 199.263,155.074 210.5,148.5 Z"/></g>
<g><path style="opacity:1" fill="#050402" d="M 318.5,170.5 C 321.32,170.248 323.986,170.748 326.5,172C 331,176.5 335.5,181 340,185.5C 340.938,194.567 337.105,197.734 328.5,195C 324.333,190.833 320.167,186.667 316,182.5C 313.455,177.723 314.288,173.723 318.5,170.5 Z"/></g>
<g><path style="opacity:1" fill="#f5b256" d="M 296.5,169.5 C 295.895,175.233 297.062,180.566 300,185.5C 305.761,193.265 312.261,200.431 319.5,207C 325.921,212.196 333.254,214.696 341.5,214.5C 309.701,246.799 277.701,278.965 245.5,311C 244.5,311.667 243.5,311.667 242.5,311C 228.333,296.833 214.167,282.667 200,268.5C 199.333,267.5 199.333,266.5 200,265.5C 232.035,233.299 264.201,201.299 296.5,169.5 Z"/></g>
<g><path style="opacity:1" fill="#db6541" d="M 167.5,188.5 C 137.147,233.279 128.813,281.946 142.5,334.5C 138.79,348.117 142.79,359.117 154.5,367.5C 172.183,405.35 198.85,435.184 234.5,457C 236.39,458.112 238.39,458.946 240.5,459.5C 243.13,458.622 245.797,457.955 248.5,457.5C 251.152,461.314 254.819,462.481 259.5,461C 291.086,447.081 313.586,424.248 327,392.5C 343.597,347.266 340.43,303.433 317.5,261C 322.955,254.543 328.788,248.376 335,242.5C 356.435,277.908 365.101,316.242 361,357.5C 354.294,410.305 328.127,449.972 282.5,476.5C 268.047,473.615 254.381,468.448 241.5,461C 238.493,460.699 235.493,460.865 232.5,461.5C 231.746,458.909 230.079,457.076 227.5,456C 219.566,456.808 211.566,457.308 203.5,457.5C 194.683,457.648 186.016,456.648 177.5,454.5C 177.167,454.167 176.833,453.833 176.5,453.5C 179.727,445.709 178.894,438.376 174,431.5C 142.5,400 111,368.5 79.5,337C 72.3861,332.21 64.8861,331.376 57,334.5C 51.0658,309.322 52.7324,284.655 62,260.5C 82.7985,215.513 117.965,191.513 167.5,188.5 Z"/></g>
<g><path style="opacity:1" fill="#e5886d" d="M 167.5,188.5 C 174.841,188.334 182.174,188.5 189.5,189C 207.047,191.238 223.381,196.738 238.5,205.5C 222.347,222.153 206.014,238.653 189.5,255C 188.5,255.667 187.5,255.667 186.5,255C 180.159,246.669 171.825,243.002 161.5,244C 143.695,251.1 138.862,263.266 147,280.5C 174.833,308.333 202.667,336.167 230.5,364C 239.5,370 248.5,370 257.5,364C 271.513,349.412 270.513,335.745 254.5,323C 271.667,305.833 288.833,288.667 306,271.5C 319.406,296.196 324.739,322.529 322,350.5C 316.919,396.554 293.419,429.054 251.5,448C 248.814,450.546 247.814,453.713 248.5,457.5C 245.797,457.955 243.13,458.622 240.5,459.5C 238.39,458.946 236.39,458.112 234.5,457C 198.85,435.184 172.183,405.35 154.5,367.5C 160.879,370.288 167.545,371.121 174.5,370C 180.075,364.885 179.742,360.219 173.5,356C 160.667,356.5 154.5,350.333 155,337.5C 151.654,332.467 147.488,331.467 142.5,334.5C 128.813,281.946 137.147,233.279 167.5,188.5 Z"/></g>
<g><path style="opacity:1" fill="#0d0804" d="M 290.5,198.5 C 292.857,198.337 295.19,198.503 297.5,199C 304.199,203.521 309.199,209.354 312.5,216.5C 311.871,222.631 308.538,225.131 302.5,224C 295.689,219.196 290.355,213.196 286.5,206C 286.927,202.977 288.261,200.477 290.5,198.5 Z"/></g>
<g><path style="opacity:1" fill="#080502" d="M 262.5,226.5 C 265.649,226.211 268.649,226.711 271.5,228C 275.333,231.833 279.167,235.667 283,239.5C 286.33,246.136 284.497,250.469 277.5,252.5C 270.958,248.467 265.124,243.467 260,237.5C 257.826,233.193 258.659,229.526 262.5,226.5 Z"/></g>
<g><path style="opacity:1" fill="#040201" d="M 234.5,254.5 C 237.187,254.336 239.854,254.503 242.5,255C 247,259.5 251.5,264 256,268.5C 257.833,277.333 254.333,280.833 245.5,279C 241,274.5 236.5,270 232,265.5C 230.812,261.259 231.645,257.592 234.5,254.5 Z"/></g>
<g><path style="opacity:1" fill="#da6541" d="M 163.5,258.5 C 165.989,258.298 168.323,258.798 170.5,260C 197.333,286.833 224.167,313.667 251,340.5C 253.686,347.458 251.353,351.791 244,353.5C 242.373,353.375 240.873,352.875 239.5,352C 212.667,325.167 185.833,298.333 159,271.5C 156.518,265.796 158.018,261.463 163.5,258.5 Z"/></g>
<g><path style="opacity:1" fill="#090301" d="M 121.5,291.5 C 128.685,291.848 131.519,295.515 130,302.5C 126.5,307.333 122.333,311.5 117.5,315C 109.841,315.671 106.674,312.171 108,304.5C 112.395,299.936 116.895,295.602 121.5,291.5 Z"/></g>
<g><path style="opacity:1" fill="#070302" d="M 154.5,367.5 C 142.79,359.117 138.79,348.117 142.5,334.5C 147.488,331.467 151.654,332.467 155,337.5C 154.5,350.333 160.667,356.5 173.5,356C 179.742,360.219 180.075,364.885 174.5,370C 167.545,371.121 160.879,370.288 154.5,367.5 Z"/></g>
<g><path style="opacity:1" fill="#ac4b2d" d="M 62.5,347.5 C 65.3198,347.248 67.9865,347.748 70.5,349C 101,379.5 131.5,410 162,440.5C 164.506,445.62 163.339,449.786 158.5,453C 155.366,453.79 152.366,453.457 149.5,452C 119.333,421.833 89.1667,391.667 59,361.5C 57.5432,358.634 57.2099,355.634 58,352.5C 59.7073,350.963 61.2073,349.296 62.5,347.5 Z"/></g>
<g><path style="opacity:1" fill="#090503" d="M 208.5,380.5 C 215.674,379.519 219.174,382.519 219,389.5C 215.201,394.301 211.034,398.801 206.5,403C 198.829,404.326 195.329,401.159 196,393.5C 199.697,388.638 203.864,384.304 208.5,380.5 Z"/></g>
</svg>
